<svg width="15" height="12" viewBox="0 0 15 12" fill="none" xmlns="http://www.w3.org/2000/svg">
<path d="M0.743412 6.74342H12.3302L8.34257 10.7311C8.05227 11.0214 8.05227 11.4922 8.34239 11.7823C8.63269 12.0726 9.10364 12.0726 9.39394 11.7823L14.6504 6.5256C14.685 6.49104 14.7158 6.45294 14.743 6.41242C14.7554 6.39365 14.7642 6.37339 14.7749 6.35388C14.7872 6.33083 14.8013 6.3089 14.8112 6.28455C14.8218 6.25946 14.8277 6.23344 14.8352 6.20742C14.8413 6.18679 14.8493 6.16709 14.8536 6.14591C14.8632 6.09758 14.8682 6.04889 14.8682 6.00001L14.8681 5.99834C14.8679 5.9502 14.863 5.90188 14.8536 5.85449C14.8491 5.83219 14.8407 5.81156 14.8342 5.78963C14.827 5.76491 14.8214 5.73982 14.8114 5.71584C14.8006 5.69001 14.7861 5.66659 14.7727 5.64224C14.7627 5.62403 14.7547 5.60545 14.7432 5.58798C14.716 5.5469 14.6848 5.50862 14.6501 5.47386L9.39376 0.21775C9.10345 -0.0725523 8.63269 -0.0725525 8.34239 0.217564C8.05208 0.507867 8.05208 0.978633 8.34239 1.26912L12.3301 5.2566H0.743412C0.332863 5.2566 0 5.58946 0 6.00001C0 6.41056 0.332863 6.74342 0.743412 6.74342Z" fill="#AC8F78"/>
</svg>
