<svg width="15" height="12" viewBox="0 0 15 12" fill="none" xmlns="http://www.w3.org/2000/svg">
<path d="M14.1248 6.74342H2.53793L6.52559 10.7311C6.81589 11.0214 6.81589 11.4922 6.52578 11.7823C6.23547 12.0726 5.76452 12.0726 5.47422 11.7823L0.217737 6.5256C0.183168 6.49104 0.152318 6.45294 0.125183 6.41242C0.112731 6.39365 0.103996 6.37339 0.0932169 6.35388C0.0809498 6.33083 0.066824 6.3089 0.0569744 6.28455C0.046381 6.25946 0.0404339 6.23344 0.033 6.20742C0.0268669 6.18679 0.0188761 6.16709 0.0146017 6.14591C0.00493717 6.09758 -8.10623e-05 6.04889 -8.10623e-05 6.00001L0.000103951 5.99834C0.000289917 5.9502 0.00512314 5.90188 0.0146017 5.85449C0.019062 5.83219 0.0274239 5.81156 0.0339289 5.78963C0.0411777 5.76491 0.0467529 5.73982 0.0567884 5.71584C0.0675678 5.69001 0.0820656 5.66659 0.0954466 5.64224C0.105483 5.62403 0.113474 5.60545 0.124997 5.58798C0.152131 5.5469 0.183356 5.50862 0.21811 5.47386L5.47441 0.21775C5.76471 -0.0725523 6.23547 -0.0725525 6.52578 0.217564C6.81608 0.507867 6.81608 0.978633 6.52578 1.26912L2.53811 5.2566H14.1248C14.5353 5.2566 14.8682 5.58946 14.8682 6.00001C14.8682 6.41056 14.5353 6.74342 14.1248 6.74342Z" fill="#AC8F78"/>
</svg>
